<svg xmlns="http://www.w3.org/2000/svg" xmlns:xlink="http://www.w3.org/1999/xlink" aria-hidden="true" role="img" class="iconify iconify--logos" width="35.93" height="32" preserveAspectRatio="xMidYMid meet" viewBox="0 0 256 228"><path fill="#00D8FF" d="M210.483 73.824a171.49 171.49 0 0 0-8.24-2.597c.465-1.58.893-3.17 1.273-4.765a75.68 75.68 0 0 0-7.684-15.585a174.06 174.06 0 0 0-6.336-3.043c1.26-5.408 1.655-10.419 1.089-14.905a60.246 60.246 0 0 0-3.094-10.155a72.017 72.017 0 0 0-4.723-8.49c-3.3-4.8-7.354-8.774-11.817-11.608a59.68 59.68 0 0 0-8.192-4.161C156.238 1.345 149.259.013 141.686.001a67.268 67.268 0 0 0-6.32.318c-3.836.403-7.445 1.16-10.77 2.239a58.69 58.69 0 0 0-9.091 3.867a47.984 47.984 0 0 0-5.115 3.005c-2.918 1.95-5.258 4.246-6.957 6.774c-3.02 4.489-4.567 9.697-4.514 15.261c.032 3.37.562 6.832 1.571 10.284c1.288 4.415 3.142 8.708 5.482 12.702c2.334 3.98 5.144 7.65 8.335 10.897a72.08 72.08 0 0 0 9.959 8.274a61.342 61.342 0 0 0 6.498 3.723c2.178 1.02 4.457 1.79 6.79 2.291a67.16 67.16 0 0 0 7.434 1.064c2.497.142 5.023.065 7.541-.232a60.3 60.3 0 0 0 6.72-1.196a52.48 52.48 0 0 0 5.816-1.883a46.16 46.16 0 0 0 5.013-2.299a40.44 40.44 0 0 0 4.396-2.669a37.18 37.18 0 0 0 6.438-5.604c2.097-2.182 3.842-4.636 5.077-7.246a33.34 33.34 0 0 0 2.646-8.168a37.09 37.09 0 0 0 .608-8.68a32.73 32.73 0 0 0-2.346-8.554a36.7 36.7 0 0 0-4.838-7.837a42.71 42.71 0 0 0-6.944-6.783a51.57 51.57 0 0 0-8.692-4.983a64.93 64.93 0 0 0-10.176-3.591a78.2 78.2 0 0 0-11.463-1.812a85.63 85.63 0 0 0-11.87.753a90.54 90.54 0 0 0-11.86 3.228a93.89 93.89 0 0 0-11.325 5.353a95.82 95.82 0 0 0-10.246 7.348a95.85 95.85 0 0 0-8.528 9.17a92.5 92.5 0 0 0-6.272 10.695a88.16 88.16 0 0 0-3.912 11.58a84.62 84.62 0 0 0-1.412 12.018a82.37 82.37 0 0 0 1.108 11.916a85.07 85.07 0 0 0 3.582 11.634a90.2 90.2 0 0 0 5.88 10.782a96.7 96.7 0 0 0 7.927 9.426a103.9 103.9 0 0 0 9.666 8.336a110.8 110.8 0 0 0 11.052 6.931a115.9 115.9 0 0 0 12.076 5.197a118.8 118.8 0 0 0 12.744 3.534a119.4 119.4 0 0 0 13.032 1.869a117.8 117.8 0 0 0 12.927-.614a113.4 113.4 0 0 0 12.401-3.155a107.7 107.7 0 0 0 11.478-5.37a101.5 101.5 0 0 0 10.166-7.339a96.1 96.1 0 0 0 8.341-9.158a91.6 91.6 0 0 0 6.07-10.69a88.02 88.02 0 0 0 3.712-11.58a84.48 84.48 0 0 0 1.212-12.02a82.22 82.22 0 0 0-1.308-11.916a84.94 84.94 0 0 0-3.782-11.626a90.05 90.05 0 0 0-6.08-10.768a96.54 96.54 0 0 0-8.127-9.41a103.7 103.7 0 0 0-9.866-8.32a110.6 110.6 0 0 0-11.252-6.918a115.7 115.7 0 0 0-12.276-5.177a118.6 118.6 0 0 0-12.944-3.504a119.3 119.3 0 0 0-13.232-1.836"></path><path fill="#00D8FF" d="M102.96 73.738c.39 3.505 1.872 6.22 4.39 8.015c2.48 1.77 5.658 2.44 9.38 1.96c3.77-.484 7.188-2.21 10.107-5.12c2.92-2.912 4.864-6.532 5.795-10.72c.93-4.2.787-8.59-.43-13.01c-1.218-4.45-3.634-8.37-7.11-11.59c-3.48-3.24-7.65-5.26-12.35-5.99c-4.73-.73-9.34.12-13.65 2.49c-4.31 2.36-7.76 5.85-10.19 10.32c-2.43 4.47-3.58 9.38-3.38 14.56c.19 5.18 1.76 9.84 4.64 13.81c2.88 3.97 6.94 6.8 12.04 8.37c5.1 1.57 9.83 1.69 14.1.34"></path></svg>
